<svg xmlns="http://www.w3.org/2000/svg" width="64.764" height="59" viewBox="0 0 64.764 59">
  <g id="Eruption" transform="translate(1.382 2.5)">
    <path id="Polygone_2" data-name="Polygone 2" d="M41.868,0a8,8,0,0,1,6.938,4.017l10.907,19a8,8,0,0,1,0,7.966l-10.907,19A8,8,0,0,1,41.868,54H20.132a8,8,0,0,1-6.938-4.017l-10.907-19a8,8,0,0,1,0-7.966l10.907-19A8,8,0,0,1,20.132,0Z" fill="rgb(255,255,255)" stroke="#d43030" stroke-width="5"/>
    <g id="eruption-2" data-name="eruption" transform="translate(11.178 5.117)">
      <path id="Tracé_12" data-name="Tracé 12" d="M72.429,321.371h-31.1a1.16,1.16,0,0,1-.988-.554,1.175,1.175,0,0,1-.051-1.137l3.11-6.258a1.165,1.165,0,0,1,.519-.523l2.142-1.077,2.315-4.658a1.163,1.163,0,0,1,.672-.586l3.732-1.251a1.155,1.155,0,0,1,1.012.136l3.088,2.071,3.088-2.071a1.156,1.156,0,0,1,1.011-.136l3.732,1.251a1.164,1.164,0,0,1,.672.586l1.071,2.155,2.142,1.077a1.164,1.164,0,0,1,.519.523l4.354,8.761a1.175,1.175,0,0,1-.051,1.137,1.16,1.16,0,0,1-.988.554Z" transform="translate(-37.057 -281.488)" fill="#233361"/>
      <path id="Tracé_13" data-name="Tracé 13" d="M272.538,320.817a1.174,1.174,0,0,0,.051-1.137l-4.354-8.761a1.165,1.165,0,0,0-.519-.523l-2.142-1.077-1.071-2.155a1.163,1.163,0,0,0-.672-.586l-3.732-1.251a1.156,1.156,0,0,0-1.012.136L256,307.535v13.837h15.551A1.16,1.16,0,0,0,272.538,320.817Z" transform="translate(-236.178 -281.488)" fill="#001f49"/>
      <g id="Groupe_2" data-name="Groupe 2">
        <path id="Tracé_14" data-name="Tracé 14" d="M13.51,118.62a4.875,4.875,0,0,0-6.921,0,3.689,3.689,0,0,0,0,5.192,3.635,3.635,0,0,0,5.163,0,2.558,2.558,0,0,1,3.659.025,1.156,1.156,0,0,0,1.63-.037,1.173,1.173,0,0,0-.012-1.64l-3.518-3.54Z" transform="translate(-5.094 -108.051)" fill="#f74c62"/>
        <path id="Tracé_15" data-name="Tracé 15" d="M209.075,2.022a4.224,4.224,0,0,0-7.209,0,4.257,4.257,0,0,0-.185,4.147l2.751,5.535a1.158,1.158,0,0,0,2.078,0l2.751-5.535A4.257,4.257,0,0,0,209.075,2.022Z" transform="translate(-185.648 0)" fill="#f74c62"/>
        <path id="Tracé_16" data-name="Tracé 16" d="M178.931,145.243a1.158,1.158,0,0,0-1.558-.523,1.172,1.172,0,0,0-.519,1.568l.622,1.252a1.158,1.158,0,0,0,1.558.523,1.172,1.172,0,0,0,.519-1.568Z" transform="translate(-163.046 -133.333)" fill="#f74c62"/>
        <path id="Tracé_17" data-name="Tracé 17" d="M1.584,257.409.34,258.661a1.174,1.174,0,0,0,0,1.652,1.157,1.157,0,0,0,1.643,0l1.244-1.252a1.174,1.174,0,0,0,0-1.652,1.157,1.157,0,0,0-1.643,0Z" transform="translate(0 -237.043)" fill="#f74c62"/>
      </g>
      <path id="Tracé_18" data-name="Tracé 18" d="M357.326,118.62a4.875,4.875,0,0,1,6.921,0,3.689,3.689,0,0,1,0,5.192,3.635,3.635,0,0,1-5.163,0,2.558,2.558,0,0,0-3.659.025,1.156,1.156,0,0,1-1.63-.037,1.173,1.173,0,0,1,.012-1.64Z" transform="translate(-326.098 -108.051)" fill="#dc1e63"/>
      <path id="Tracé_19" data-name="Tracé 19" d="M297.975,145.243a1.158,1.158,0,0,1,1.558-.523,1.172,1.172,0,0,1,.519,1.568l-.622,1.252a1.158,1.158,0,0,1-1.558.523,1.172,1.172,0,0,1-.519-1.568Z" transform="translate(-274.215 -133.333)" fill="#dc1e63"/>
      <path id="Tracé_20" data-name="Tracé 20" d="M467.917,257.409l1.244,1.252a1.174,1.174,0,0,1,0,1.652,1.157,1.157,0,0,1-1.643,0l-1.244-1.252a1.173,1.173,0,0,1,0-1.652A1.157,1.157,0,0,1,467.917,257.409Z" transform="translate(-429.857 -237.043)" fill="#dc1e63"/>
      <path id="Tracé_21" data-name="Tracé 21" d="M256,12.349a1.161,1.161,0,0,0,1.039-.646l2.751-5.535a4.257,4.257,0,0,0-.186-4.146A4.2,4.2,0,0,0,256,0Z" transform="translate(-236.175 0)" fill="#dc1e63"/>
      <path id="Tracé_22" data-name="Tracé 22" d="M153.226,236.032a1.155,1.155,0,0,1-.644-.2l-3.259-2.186-3.193,1.071a1.157,1.157,0,0,1-1.245-.343,1.174,1.174,0,0,1-.161-1.288l3.732-7.509a1.161,1.161,0,0,1,1.039-.646h7.464a1.161,1.161,0,0,1,1.039.646l3.732,7.509a1.174,1.174,0,0,1-.161,1.288,1.157,1.157,0,0,1-1.245.343l-3.193-1.071-3.26,2.186A1.155,1.155,0,0,1,153.226,236.032Z" transform="translate(-133.404 -207.412)" fill="#ff775a"/>
      <path id="Tracé_23" data-name="Tracé 23" d="M259.9,233.649l3.193,1.071a1.157,1.157,0,0,0,1.245-.343,1.174,1.174,0,0,0,.161-1.288l-3.732-7.509a1.161,1.161,0,0,0-1.039-.646H256v11.1a1.155,1.155,0,0,0,.644-.2Z" transform="translate(-236.178 -207.412)" fill="#f74c62"/>
    </g>
  </g>
</svg>
