<svg xmlns="http://www.w3.org/2000/svg" width="64.764" height="59" viewBox="0 0 64.764 59">
  <g id="Cyclone" transform="translate(1.382 2.5)">
    <path id="Polygone_4" data-name="Polygone 4" d="M41.868,0a8,8,0,0,1,6.938,4.017l10.907,19a8,8,0,0,1,0,7.966l-10.907,19A8,8,0,0,1,41.868,54H20.132a8,8,0,0,1-6.938-4.017l-10.907-19a8,8,0,0,1,0-7.966l10.907-19A8,8,0,0,1,20.132,0Z" fill="rgb(255,255,255)" stroke="#2337b3" stroke-width="5"/>
    <g id="cyclone-2" data-name="cyclone" transform="translate(9.965 7.354)">
      <path id="Tracé_6" data-name="Tracé 6" d="M221.966,63.779c0-8.824-7.659-15.978-17.108-15.978a18.315,18.315,0,0,0-3.928.424L196,63.779l4.93,15.554v4.092c9.448,0,17.108-7.154,17.108-15.978a15.016,15.016,0,0,0-.454-3.668Z" transform="translate(-179.895 -44.133)" fill="#54d8ff"/>
      <path id="Tracé_7" data-name="Tracé 7" d="M21.035,0C11.587,0,3.928,7.154,3.928,15.978a15.016,15.016,0,0,0,.454,3.668H0c0,8.824,7.659,15.978,17.108,15.978a18.315,18.315,0,0,0,3.928-.424Z" fill="#8de5ff"/>
      <path id="Tracé_8" data-name="Tracé 8" d="M208.464,117.732h7.045a11.986,11.986,0,0,0-10.652-6.2,12.565,12.565,0,0,0-3.928.624L196,122.623l4.93,10.462a11.953,11.953,0,0,0,5.237-3.426v6.58a11.059,11.059,0,0,0,6.634-9.948A10.8,10.8,0,0,0,208.464,117.732Z" transform="translate(-179.895 -102.976)" fill="#7288ff"/>
      <path id="Tracé_9" data-name="Tracé 9" d="M87.911,85.148v-6.58a11.059,11.059,0,0,0-6.634,9.948,10.8,10.8,0,0,0,4.336,8.56H78.569a11.986,11.986,0,0,0,10.652,6.2,12.565,12.565,0,0,0,3.928-.624V81.722A11.953,11.953,0,0,0,87.911,85.148Z" transform="translate(-72.113 -72.538)" fill="#63b0ff"/>
      <path id="Tracé_10" data-name="Tracé 10" d="M239.592,215.79a3.467,3.467,0,0,1-3.579,3.342l-1.789-3.342,1.789-3.342A3.467,3.467,0,0,1,239.592,215.79Z" transform="translate(-214.978 -196.144)" fill="#c6f2ff"/>
      <path id="Tracé_11" data-name="Tracé 11" d="M216.027,212.448v6.685a3.35,3.35,0,1,1,0-6.685Z" transform="translate(-194.991 -196.144)" fill="#fff"/>
    </g>
  </g>
</svg>
