<svg xmlns="http://www.w3.org/2000/svg" width="64.764" height="59" viewBox="0 0 64.764 59">
  <g id="Groupe_28" data-name="Groupe 28" transform="translate(1.382 2.5)">
    <path id="Polygone_1" data-name="Polygone 1" d="M41.868,0a8,8,0,0,1,6.938,4.017l10.907,19a8,8,0,0,1,0,7.966l-10.907,19A8,8,0,0,1,41.868,54H20.132a8,8,0,0,1-6.938-4.017l-10.907-19a8,8,0,0,1,0-7.966l10.907-19A8,8,0,0,1,20.132,0Z" fill="rgba(188,143,255,0.75)" stroke="#740ccf" stroke-width="5"/>
  </g>
  <g id="bolide" transform="translate(13.246 0.5)">
    <path id="Tracé_1" data-name="Tracé 1" d="M32.176,39.79,49.9,14.037a1.348,1.348,0,0,0-.143-1.69,1.509,1.509,0,0,0-1.749-.316l-4.367,2.079L49.981,2.042A1.3,1.3,0,0,0,49.632.5a1.458,1.458,0,0,0-1.62-.332L35.338,6.2l2.183-4.158A1.37,1.37,0,0,0,37.189.377,1.528,1.528,0,0,0,35.414.241L8.364,17.12A16.609,16.609,0,0,0,.1,29.444a15.981,15.981,0,0,0,5.048,13.41,17.727,17.727,0,0,0,27.03-3.064Z" transform="translate(0 -0.019)" fill="#fabe2c"/>
    <path id="Tracé_2" data-name="Tracé 2" d="M66.64,52.329a17.606,17.606,0,0,0,12.951-7.866L97.319,18.71a1.348,1.348,0,0,0-.143-1.69,1.509,1.509,0,0,0-1.749-.316L91.06,18.783,97.4,6.716a1.3,1.3,0,0,0-.349-1.543L52.561,47.528A17.763,17.763,0,0,0,66.64,52.329Z" transform="translate(-47.415 -4.693)" fill="#ff9100"/>
    <ellipse id="Ellipse_1" data-name="Ellipse 1" cx="11.748" cy="11.185" rx="11.748" ry="11.185" transform="translate(5.858 19.787)" fill="#c86e59"/>
    <g id="Groupe_1" data-name="Groupe 1" transform="translate(9.299 23.063)">
      <path id="Tracé_3" data-name="Tracé 3" d="M111.6,263.279a10.822,10.822,0,0,0,0-15.817L94.987,263.279A12.184,12.184,0,0,0,111.6,263.279Z" transform="translate(-94.987 -247.462)" fill="#8c4a37"/>
      <ellipse id="Ellipse_2" data-name="Ellipse 2" cx="1.468" cy="1.398" rx="1.468" ry="1.398" transform="translate(7.877 1.568)" fill="#8c4a37"/>
      <path id="Tracé_4" data-name="Tracé 4" d="M142.487,309.884a4.368,4.368,0,0,0-1.23-.807,4.564,4.564,0,0,0-5,.807,4.039,4.039,0,0,0-.847,4.761,4.143,4.143,0,0,0,.847,1.171,4.569,4.569,0,0,0,6.23,0A4.058,4.058,0,0,0,142.487,309.884Z" transform="translate(-131.065 -302.963)" fill="#8c4a37"/>
    </g>
    <path id="Tracé_5" data-name="Tracé 5" d="M146.445,319.794a4.058,4.058,0,0,0,0-5.932,4.369,4.369,0,0,0-1.23-.807l-5.848,5.567a4.143,4.143,0,0,0,.847,1.171A4.569,4.569,0,0,0,146.445,319.794Z" transform="translate(-125.724 -283.879)" fill="#663325"/>
  </g>
</svg>
