<svg xmlns="http://www.w3.org/2000/svg" width="64.764" height="59" viewBox="0 0 64.764 59">
  <path id="Tracé_165" data-name="Tracé 165" d="M41.868,0a8,8,0,0,1,6.938,4.017l10.907,19a8,8,0,0,1,0,7.966l-10.907,19A8,8,0,0,1,41.868,54H20.132a8,8,0,0,1-6.938-4.017l-10.907-19a8,8,0,0,1,0-7.966l10.907-19A8,8,0,0,1,20.132,0Z" transform="translate(1.382 2.5)" fill="rgba(255,163,129,0.75)" stroke="#bb0d00" stroke-width="5"/>
  <path id="Tracé_164" data-name="Tracé 164" d="M118.662,153.4l-4.915,8.078-4.212-14.3-4.844,14.647-2.036-17.59-.28-.022H100.1l-1.94,13.849L95.709,137H93.095l-2.3,26.6-2.919-27.24h-2.5l-2.725,27.651-1.933-12.183H78.33l-2.14,8.144L73.1,154.7l-7.091,5.2,1.168,2.352,5.08-4.063,4.984,8.419,1.9-7.94L82,170.652h1.612l2.917-25.635,2.84,28.091h2.379l2.831-23.128,2.176,18.343,2.317.069,2.176-14.168,1.755,13.962,2.316-.067,4.212-12.731,3.37,11.841,6.761-11.466Z" transform="translate(-59.937 -127.142)" fill="#b54b2a"/>
</svg>
