<svg id="Layer_1" enable-background="new 0 0 511.935 511.935" height="512" viewBox="0 0 511.935 511.935" width="512" xmlns="http://www.w3.org/2000/svg"><g><path d="m255.978 0c-24.814 0-45.002 20.188-45.002 45.002v47.104l90.004.007v-47.11c0-24.815-20.187-45.003-45.002-45.003z" fill="#ffef4a"/><path d="m300.98 45.002c0-24.814-20.187-45.002-45.002-45.002v92.109l45.002.003z" fill="#ffd845"/><path d="m255.967 58.802c-83.573 0-151.565 67.991-151.565 151.564v149.652h303.13v-149.652c0-83.573-67.992-151.564-151.565-151.564z" fill="#ffd845"/><path d="m407.532 210.366c0-83.569-67.986-151.558-151.554-151.564v301.217h151.554z" fill="#ffb145"/><path d="m194.658 416.271v34.354c0 33.806 27.503 61.309 61.309 61.309s61.309-27.503 61.309-61.309v-34.354z" fill="#ffd845"/><path d="m317.276 450.626v-34.354h-61.298v95.663c33.801-.007 61.298-27.507 61.298-61.309z" fill="#ffb145"/><path d="m468.784 416.271c-33.774 0-61.252-27.478-61.252-61.252v-25.001h-303.13v25.001c0 33.774-27.478 61.252-61.252 61.252h-5.451v30h436.538v-30z" fill="#ffef4a"/><g><path d="m472.431 185.021h-30c0-40.054-15.599-77.712-43.922-106.035l21.213-21.213c33.991 33.989 52.709 79.18 52.709 127.248z" fill="#ff8e00"/></g><g><path d="m69.503 185.021h-30c0-48.067 18.719-93.259 52.708-127.248l21.213 21.213c-28.323 28.323-43.921 65.98-43.921 106.035z" fill="#ff8e00"/></g><g><path d="m472.431 185.021h-30c0-40.054-15.599-77.712-43.922-106.035l21.213-21.213c33.991 33.989 52.709 79.18 52.709 127.248z" fill="#ff6326"/></g><path d="m474.236 416.271h-5.452c-33.774 0-61.252-27.478-61.252-61.252v-25.001h-151.554v116.253h218.258z" fill="#ffd845"/></g></svg>