<svg id="fi_3400320" enable-background="new 0 0 512 512" height="512" viewBox="0 0 512 512" width="512" xmlns="http://www.w3.org/2000/svg"><g><g><g><g><path d="m348.3 437c-35.7 45.599-91.199 75-153.3 75s-117.599-29.401-153.3-75l3.3-60-42.599-30c-1.5-9.6-2.401-19.801-2.401-30 0-107.401 87.599-195 195-195l150 135z" fill="#6aa9ff"></path></g></g></g><path d="m348.3 437-3.3-180-150-135v390c62.1 0 117.599-29.401 153.3-75z" fill="#2682ff"></path><path d="m390 317c0 45.3-15.601 86.999-41.7 120h-93.3c-16.5 0-30-13.5-30-30s13.5-30 30-30h30c16.5 0 30-13.5 30-30s-13.5-30-30-30h-90c-16.5 0-30-13.5-30-30h-30c-16.5 0-30-13.5-30-30s13.5-30 30-30h30c16.5 0 30-13.5 30-30v-75c22.8 0 45 3.9 65.7 11.4 5.7 2.1 9.6 7.2 9.901 13.499 1.059 17.985 14.009 46.219 2.399 92.1 45.743-11.712 78.641 1.608 92.1 2.401 6.301.3 11.4 4.2 13.5 9.901 7.5 20.699 11.4 42.899 11.4 65.699z" fill="#97de3d"></path><path d="m165 407c0 16.5-13.5 30-30 30h-93.3c-20.4-25.501-34.2-56.4-39.3-90h72.6c16.5 0 30 13.5 30 30h30c16.5 0 30 13.5 30 30z" fill="#97de3d"></path><path d="m285 317c16.5 0 30 13.5 30 30s-13.5 30-30 30h-30c-16.5 0-30 13.5-30 30s13.5 30 30 30h93.3c26.1-33.001 41.7-74.7 41.7-120 0-22.8-3.9-45-11.4-65.7-2.1-5.7-7.2-9.6-13.5-9.901-13.46-.793-46.357-14.114-92.1-2.401 11.611-45.883-1.34-74.116-2.399-92.1-.3-6.299-4.2-11.398-9.901-13.499-20.7-7.499-42.9-11.399-65.7-11.399v75 120z" fill="#59c36a"></path><g><path d="m236.374 255.19c12.725-25.447 17.053-57.923 9.683-87.451-2.68-10.356-4.057-21.416-4.057-32.739 0-74.443 60.557-135 135-135s135 60.557 135 135-60.557 135-135 135c-11.118 0-22.061-1.377-32.549-4.087-32.48-7.618-63.382-2.607-87.935 9.712-13.069 6.49-26.588-7.534-20.142-20.435z" fill="#fed843"></path></g><path d="m512 135c0-74.443-60.557-135-135-135v270c74.443 0 135-60.557 135-135z" fill="#fabe2c"></path><g><path d="m422 105c0 18.9-12.001 36-29.7 42.299 0 8.401-6.899 16.501-15.3 16.501-8.101 0-15-5.4-15-13.801 0-12.599 5.7-23.101 15-28.5 1.5-.899 3.3-1.8 5.099-2.401 6-2.098 9.901-7.798 9.901-14.099 0-8.401-6.599-15-15-15s-15 6.599-15 15-6.599 15-15 15-15-6.599-15-15c0-24.901 20.099-45 45-45s45 20.1 45 45.001z" fill="#474f54"></path></g><g><circle cx="377" cy="195" fill="#474f54" r="15"></circle></g><g fill="#32393f"><path d="m392 195c0-8.284-6.716-15-15-15v30c8.284 0 15-6.716 15-15z"></path><path d="m422 105c0 18.9-12.001 36-29.7 42.299 0 8.401-6.899 16.501-15.3 16.501v-42.3c1.5-.899 3.3-1.8 5.099-2.401 6-2.098 9.901-7.798 9.901-14.099 0-8.401-6.599-15-15-15v-30c24.901 0 45 20.099 45 45z"></path></g></g></svg>