<svg id="fi_3400729" enable-background="new 0 0 512 512" height="512" viewBox="0 0 512 512" width="512" xmlns="http://www.w3.org/2000/svg"><g><g><path d="m301 512h-60c-8.291 0-15-6.709-15-15v-120c0-8.291 6.709-15 15-15h60c8.291 0 15 6.709 15 15v120c0 8.291-6.709 15-15 15z" fill="#575f64"></path></g><path d="m301 362h-30v150h30c8.291 0 15-6.709 15-15v-120c0-8.291-6.709-15-15-15z" fill="#474f54"></path><g><path d="m241 150c-8.291 0-15-6.709-15-15v-45l15-30 15 30v45c0 8.291-6.709 15-15 15z" fill="#efe2dd"></path></g><g><path d="m481 390h-255c-16.569 0-30-13.431-30-30v-135c0-41.353-33.647-75-75-75-8.291 0-15-6.709-15-15s6.709-15 15-15h270c57.99 0 105 47.01 105 105v150c0 8.284-6.716 15-15 15z" fill="#fed843"></path></g><path d="m331 390h150c8.284 0 15-6.716 15-15v-150c0-57.99-47.01-105-105-105h-60z" fill="#fabe2c"></path><g><path d="m331 90h-105v-75c0-8.284 6.716-15 15-15h90c8.284 0 15 6.716 15 15v60c0 8.284-6.716 15-15 15z" fill="#efe2dd"></path></g><path d="m286 90h45c8.284 0 15-6.716 15-15v-60c0-8.286-6.716-15-15-15h-45z" fill="#e1d3ce"></path><g><path d="m226 390h-195c-8.284 0-15-6.716-15-15v-146.978c0-144.614 210-140.68 210-3.022z" fill="#fff5f5"></path><path d="m46 360v-131.979c0-25.064 7.697-44.757 22.879-58.534 13.381-12.143 31.801-18.83 51.866-18.83 19.854 0 38.979 6.846 52.469 18.783 15.12 13.38 22.786 32.073 22.786 55.56v135z" fill="#efe2dd"></path></g><g><path d="m151 330h-60c-8.291 0-15-6.709-15-15s6.709-15 15-15h60c8.291 0 15 6.709 15 15s-6.709 15-15 15z" fill="#fff5f5"></path></g><g id="Mailbox_1_"><g><path d="m376 225c0 18.9-12.001 36-29.7 42.299 0 8.401-6.899 16.5-15.3 16.5-8.101 0-15-5.4-15-13.799 0-12.601 5.7-23.101 15-28.5 1.5-.901 3.3-1.8 5.099-2.401 6-2.1 9.901-7.8 9.901-14.099 0-8.401-6.599-15-15-15s-15 6.599-15 15c0 8.399-6.599 15-15 15s-15-6.601-15-15c0-24.901 20.099-45 45-45s45 20.099 45 45z" fill="#474f54"></path></g><g><circle cx="331" cy="315" fill="#474f54" r="15"></circle></g></g><g fill="#32393f"><path d="m346 315c0-8.286-6.716-15-15-15v30c8.284 0 15-6.716 15-15z"></path><path d="m376 225c0 18.9-12.001 36-29.7 42.299 0 8.401-6.899 16.5-15.3 16.5v-42.299c1.5-.901 3.3-1.8 5.099-2.401 6-2.1 9.901-7.8 9.901-14.099 0-8.401-6.599-15-15-15v-30c24.901 0 45 20.099 45 45z"></path></g></g></svg>