<svg clip-rule="evenodd" fill-rule="evenodd" height="173.397mm" image-rendering="optimizeQuality" shape-rendering="geometricPrecision" text-rendering="geometricPrecision" viewBox="0 0 173.397 173.397" width="173.397mm" xmlns="http://www.w3.org/2000/svg" xmlns:xlink="http://www.w3.org/1999/xlink" id="fi_11389161"><linearGradient id="id0" gradientUnits="userSpaceOnUse" x1="25.739" x2="147.659" y1="147.659" y2="25.739"><stop offset="0" stop-color="#8a2387"></stop><stop offset=".470588" stop-color="#e94057"></stop><stop offset="1" stop-color="#f27121"></stop></linearGradient><g id="Layer_x0020_1"><circle cx="86.699" cy="86.699" fill="url(#id0)" r="84.667"></circle><g id="_317809152" fill="#fff"><path id="_317809536" d="m86.6986 32.512c30.0601 0 54.4286 24.2602 54.4286 54.1866s-24.3685 54.1866-54.4286 54.1866-54.4286-24.2602-54.4286-54.1866 24.3685-54.1866 54.4286-54.1866zm0 10.1267c24.4405 0 44.2536 19.7263 44.2536 44.0599s-19.8131 44.0599-44.2536 44.0599-44.2536-19.7263-44.2536-44.0599 19.8131-44.0599 44.2536-44.0599z"></path><path id="_317809512" d="m68.594 114.281c2.2803 2.2702 5.9776 2.2702 8.2579 0l39.3941-39.219c2.2803-2.2701 2.2803-5.951 0-8.2212-2.2803-2.2701-5.9776-2.2701-8.2579 0l-35.4831 35.3255-8.5647-8.9606c-2.2803-2.2702-5.9775-2.2702-8.2578 0-2.2804 2.2702-2.2804 5.951 0 8.2211z" fill-rule="nonzero"></path></g></g></svg>