<svg id="Urban" viewBox="0 0 64 64" xmlns="http://www.w3.org/2000/svg"><path d="m26 15h-16c-.55 0-1 .45-1 1s.45 1 1 1h1v43c0 .55.45 1 1 1h14c.55 0 1-.45 1-1v-44c0-.55-.45-1-1-1z" fill="#3b0273"/><path d="m49.61 3.21c-.25-.19-.56-.26-.86-.18l-23 6c-.44.12-.75.51-.75.97v50c0 .55.45 1 1 1h23c.55 0 1-.45 1-1v-56c0-.31-.14-.6-.39-.79z" fill="#6503a6"/><rect fill="#fff" height="10" rx="1" width="6" x="30" y="14"/><rect fill="#fff" height="10" rx="1" width="6" x="39" y="14"/><rect fill="#fff" height="10" rx="1" width="6" x="30" y="27"/><rect fill="#fff" height="10" rx="1" width="6" x="30" y="40"/><path d="m58.88 30.17-8-6.5c-1.09-.9-2.68-.9-3.77 0l-8 6.5c-.7.57-1.12 1.45-1.12 2.36v11.47c0 .55.45 1 1 1h20c.55 0 1-.45 1-1v-11.47c0-.91-.42-1.79-1.12-2.36z" fill="#f16bf2"/><path d="m51 35h-4c-1.1 0-2 .9-2 2v7c0 .55.45 1 1 1h6c.55 0 1-.45 1-1v-7c0-1.1-.9-2-2-2z" fill="#fff"/><path d="m60 43h-22v17c0 .55.45 1 1 1h20c.55 0 1-.45 1-1z" fill="#c003d9"/><path d="m51 51h-4c-1.1 0-2 .9-2 2v7c0 .55.45 1 1 1h6c.55 0 1-.45 1-1v-7c0-1.1-.9-2-2-2z" fill="#fff"/><rect fill="#c003d9" height="18" rx="5" width="12" x="11" y="35"/><rect fill="#f16bf2" height="22" rx="5" width="12" x="2" y="29"/><path d="m8 61c-.55 0-1-.45-1-1v-19c0-.55.45-1 1-1s1 .45 1 1v19c0 .55-.45 1-1 1z" fill="#110340"/><path d="m17 61c-.55 0-1-.45-1-1v-13c0-.55.45-1 1-1s1 .45 1 1v13c0 .55-.45 1-1 1z" fill="#110340"/><g fill="#fff"><path d="m16 21h-2c-.55 0-1-.45-1-1s.45-1 1-1h2c.55 0 1 .45 1 1s-.45 1-1 1z"/><path d="m22 21h-2c-.55 0-1-.45-1-1s.45-1 1-1h2c.55 0 1 .45 1 1s-.45 1-1 1z"/><path d="m16 25h-2c-.55 0-1-.45-1-1s.45-1 1-1h2c.55 0 1 .45 1 1s-.45 1-1 1z"/><path d="m22 25h-2c-.55 0-1-.45-1-1s.45-1 1-1h2c.55 0 1 .45 1 1s-.45 1-1 1z"/><path d="m16 29h-2c-.55 0-1-.45-1-1s.45-1 1-1h2c.55 0 1 .45 1 1s-.45 1-1 1z"/><path d="m22 29h-2c-.55 0-1-.45-1-1s.45-1 1-1h2c.55 0 1 .45 1 1s-.45 1-1 1z"/><path d="m22 33h-2c-.55 0-1-.45-1-1s.45-1 1-1h2c.55 0 1 .45 1 1s-.45 1-1 1z"/></g><path d="m61 61h-58c-.55 0-1-.45-1-1s.45-1 1-1h58c.55 0 1 .45 1 1s-.45 1-1 1z" fill="#f16bf2"/></svg>